# xmcd
#
# Track frame offsets: 
#        150
#        10782
#        36806
#        51579
#        68957
#        89073
#        110203
#        125620
#        137754
#        152013
#        163547
#        184216
#
# Disc length: 2988 seconds
#
# Revision: 1
# Processed by: cddbd v1.5.2PL0 Copyright (c) Steve Scherf et al.
# Submitted via: ExactAudioCopy v0.95a4
#
DISCID=ae0baa0c
DTITLE=The Veldman Brothers - Home
DYEAR=2007
DGENRE=Blues
TTITLE0=Brothers Shuffle
TTITLE1=One More Chance
TTITLE2=Killing Floor
TTITLE3=This Pain
TTITLE4=Daytrippin' Man
TTITLE5=Easy Rider
TTITLE6=Settin' The Clock
TTITLE7=Tell Me Baby
TTITLE8=Let Me Love You Baby
TTITLE9=Harponized
TTITLE10=Waitin'
TTITLE11=All Those People
EXTD=Year: 2007\n\n\n\n                                               
EXTD=  www.veldmanbrothers.nl\n\n\n                         
EXTD=       www.youtube.com/user/theveldmanbrothers1
EXTT0=
EXTT1=
EXTT2=
EXTT3=
EXTT4=
EXTT5=
EXTT6=
EXTT7=
EXTT8=
EXTT9=
EXTT10=
EXTT11=
PLAYORDER=
